# xmcd
#
# Track frame offsets:
# 150
# 10380
# 26642
# 37575
# 49550
# 64695
# 76217
# 88392
# 100420
# 110512
# 125572
# 138412
# 151727
# 163435
# 177485
# 190557
# 202500
# 213742
# 226160
# 236245
#
# Disc length: 3321 seconds
#
#
# Revision: 0
# Processed by: cddbd v1.5.1PL0 Copyright (c) Steve Scherf et al.
# Submitted via: FreeRIP 2.90 
#
DISCID=090cf714
DTITLE=Varios - The Heart Of Country
DYEAR=1994
DGENRE=Country
TTITLE0=Bill Monroe and the Blue Grass Boys - Blue Moon Of Kentucky
TTITLE1=Lynn Anderson - Devil Went Down To Georgia
TTITLE2=Ferlin Husky - Six Days On The Road
TTITLE3=Ace Cannon - You Win Again
TTITLE4=Boxcar Willie - White Line Fever
TTITLE5=Carls Perkins - Right String But The Wrong Yo Yo
TTITLE6=Del Reeves - Girl On The Billboard
TTITLE7=Skeeter Davis - The End Of The World
TTITLE8=Don Gibson - Lonesome Number One
TTITLE9=Freddie Fender - La Bamba
TTITLE10=Bob Wills - If Hes Movin In Im Movin Out
TTITLE11=Faron Young -Swingin Doors
TTITLE12=Carl Perkins - Born To Boogie
TTITLE13=Ace Cannon - Southern Nights
TTITLE14=Billie Joe Spears - Dallas
TTITLE15=The Carter Family - Wildwood Flower
TTITLE16=Ray Pillow - Thank God And Greyhound
TTITLE17=Jeanne Pruett - Satin Sheets
TTITLE18=Donna Fargo - Sticks And Stones
TTITLE19=Bill Monroe and The Bluegrass Boys - Orange Blossom Special
EXTD=
EXTT0=
EXTT1=
EXTT2=
EXTT3=
EXTT4=
EXTT5=
EXTT6=
EXTT7=
EXTT8=
EXTT9=
EXTT10=
EXTT11=
EXTT12=
EXTT13=
EXTT14=
EXTT15=
EXTT16=
EXTT17=
EXTT18=
EXTT19=
PLAYORDER=
